{"asset":{"generator":"3D Builder","version":"2.0"},"scene":0,"scenes":[{"nodes":[0,1,2,3,4,5,6,7,8,9]}],"nodes":[{"mesh":0,"matrix":[1,0,0,0,0,-1.1920928955078125E-7,-0.99999988079071045,0,0,0.99999988079071045,-1.1920928955078125E-7,0,-0.013019796460866928,0.9999997615814209,-0.012960808351635933,1]},{"mesh":1,"matrix":[1,0,0,0,0,-1.1920928955078125E-7,-0.99999988079071045,0,0,0.99999988079071045,-1.1920928955078125E-7,0,-0.013019796460866928,0.9999997615814209,-0.012960808351635933,1]},{"mesh":2,"matrix":[1,0,0,0,0,-1.1920928955078125E-7,-0.99999988079071045,0,0,0.99999988079071045,-1.1920928955078125E-7,0,-0.013019796460866928,0.9999997615814209,-0.012960808351635933,1]},{"mesh":3,"matrix":[1,0,0,0,0,-1.1920928955078125E-7,-0.99999988079071045,0,0,0.99999988079071045,-1.1920928955078125E-7,0,-0.013019796460866928,0.9999997615814209,-0.012960808351635933,1]},{"mesh":4,"matrix":[1,0,0,0,0,-1.1920928955078125E-7,-0.99999988079071045,0,0,0.99999988079071045,-1.1920928955078125E-7,0,-0.013019796460866928,0.9999997615814209,-0.012960808351635933,1]},{"mesh":5,"matrix":[1,0,0,0,0,-1.1920928955078125E-7,-0.99999988079071045,0,0,0.99999988079071045,-1.1920928955078125E-7,0,-0.013019796460866928,0.9999997615814209,-0.012960808351635933,1]},{"mesh":6,"matrix":[1,0,0,0,0,-1.1920928955078125E-7,-0.99999988079071045,0,0,0.99999988079071045,-1.1920928955078125E-7,0,-0.013019796460866928,0.9999997615814209,-0.012960808351635933,1]},{"mesh":7,"matrix":[1,0,0,0,0,-1.1920928955078125E-7,-0.99999988079071045,0,0,0.99999988079071045,-1.1920928955078125E-7,0,-0.013019796460866928,0.9999997615814209,-0.012960808351635933,1]},{"mesh":8,"matrix":[1,0,0,0,0,-1.1920928955078125E-7,-0.99999988079071045,0,0,0.99999988079071045,-1.1920928955078125E-7,0,-0.013019796460866928,0.9999997615814209,-0.012960808351635933,1]},{"mesh":9,"matrix":[1,0,0,0,0,-1.1920928955078125E-7,-0.99999988079071045,0,0,0.99999988079071045,-1.1920928955078125E-7,0,-0.013019796460866928,0.9999997615814209,-0.012960808351635933,1]}],"meshes":[{"primitives":[{"attributes":{"POSITION":0},"mode":4,"indices":1,"material":0}]},{"primitives":[{"attributes":{"POSITION":2},"mode":4,"indices":3,"material":1}]},{"primitives":[{"attributes":{"POSITION":4},"mode":4,"indices":6,"material":2},{"attributes":{"POSITION":5},"mode":4,"indices":7,"material":3}]},{"primitives":[{"attributes":{"POSITION":8},"mode":4,"indices":9,"material":2}]},{"primitives":[{"attributes":{"POSITION":10},"mode":4,"indices":11,"material":4}]},{"primitives":[{"attributes":{"POSITION":12},"mode":4,"indices":14,"material":2},{"attributes":{"POSITION":13},"mode":4,"indices":15,"material":5}]},{"primitives":[{"attributes":{"POSITION":16},"mode":4,"indices":17,"material":4}]},{"primitives":[{"attributes":{"POSITION":18},"mode":4,"indices":19,"material":0}]},{"primitives":[{"attributes":{"POSITION":20},"mode":4,"indices":21,"material":0}]},{"primitives":[{"attributes":{"POSITION":22},"mode":4,"indices":23,"material":6}]}],"materials":[{"name":"Material.008","pbrMetallicRoughness":{"baseColorFactor":[0.93868559598922729,0.39157214760780334,0.147027388215065,1],"metallicFactor":0,"roughnessFactor":0.5},"alphaMode":"OPAQUE"},{"name":"Material.002","pbrMetallicRoughness":{"baseColorFactor":[1,0.77582186460495,0.1682695746421814,1],"metallicFactor":0,"roughnessFactor":0.5},"alphaMode":"OPAQUE"},{"name":"Material.004","pbrMetallicRoughness":{"baseColorFactor":[0.42869046330451965,0.063009887933731079,0.025186881422996521,1],"metallicFactor":0,"roughnessFactor":0.5},"alphaMode":"OPAQUE"},{"name":"Material.011","pbrMetallicRoughness":{"baseColorFactor":[0.93868559598922729,0.39157214760780334,0.147027388215065,1],"metallicFactor":0,"roughnessFactor":0.5},"alphaMode":"OPAQUE"},{"name":"Material.006","pbrMetallicRoughness":{"baseColorFactor":[0.42869046330451965,0.063009887933731079,0.025186881422996521,1],"metallicFactor":0,"roughnessFactor":0.5},"alphaMode":"OPAQUE"},{"name":"Material.016","pbrMetallicRoughness":{"baseColorFactor":[0.96468627452850342,0.386429101228714,0.13286842405796051,1],"metallicFactor":0,"roughnessFactor":0.5},"alphaMode":"OPAQUE"},{"name":"Material.010","pbrMetallicRoughness":{"baseColorFactor":[0.93868559598922729,0.39157214760780334,0.147027388215065,1],"metallicFactor":0,"roughnessFactor":0.5},"alphaMode":"OPAQUE"}],"accessors":[{"bufferView":0,"byteOffset":0,"count":386,"componentType":5126,"type":"VEC3","min":[0.93297767639160156,0.19178536534309387,-0.047812897711992264],"max":[1.0797748565673828,0.29525244235992432,0.096177935600280762]},{"bufferView":1,"byteOffset":0,"count":2304,"componentType":5125,"type":"SCALAR"},{"bufferView":2,"byteOffset":0,"count":2562,"componentType":5126,"type":"VEC3","min":[-0.99999994039535522,-0.99999982118606567,-0.99999988079071045],"max":[1,0.99999982118606567,0.99999988079071045]},{"bufferView":3,"byteOffset":0,"count":15360,"componentType":5125,"type":"SCALAR"},{"bufferView":4,"byteOffset":0,"count":1062,"componentType":5126,"type":"VEC3","min":[-1.0537352561950684,-1.0710572004318237,-0.50453805923461914],"max":[1.0673773288726807,1.0521479845046997,0.549211859703064]},{"bufferView":4,"byteOffset":12744,"count":636,"componentType":5126,"type":"VEC3","min":[-1.0537352561950684,-1.0799726247787476,-0.17261713743209839],"max":[1.0673773288726807,1.0521479845046997,0.523343026638031]},{"bufferView":5,"byteOffset":0,"count":5880,"componentType":5125,"type":"SCALAR"},{"bufferView":5,"byteOffset":23520,"count":3336,"componentType":5125,"type":"SCALAR"},{"bufferView":6,"byteOffset":0,"count":1538,"componentType":5126,"type":"VEC3","min":[-0.82371902465820313,-0.57100629806518555,-0.99450969696044922],"max":[0.79016715288162231,1.0540512800216675,-0.19754546880722046]},{"bufferView":7,"byteOffset":0,"count":9216,"componentType":5125,"type":"SCALAR"},{"bufferView":8,"byteOffset":0,"count":386,"componentType":5126,"type":"VEC3","min":[0.5790824294090271,-0.041768714785575867,-0.6685107946395874],"max":[0.949889063835144,0.46382474899291992,-0.20738258957862854]},{"bufferView":9,"byteOffset":0,"count":2304,"componentType":5125,"type":"SCALAR"},{"bufferView":10,"byteOffset":0,"count":1047,"componentType":5126,"type":"VEC3","min":[-0.93471735715866089,-0.9145665168762207,0.14753121137619019],"max":[0.86270743608474731,0.78884756565093994,0.89836394786834717]},{"bufferView":10,"byteOffset":12564,"count":627,"componentType":5126,"type":"VEC3","min":[-0.80445832014083862,-0.89055788516998291,0.49445921182632446],"max":[0.66823309659957886,0.569079577922821,0.90763115882873535]},{"bufferView":11,"byteOffset":0,"count":5862,"componentType":5125,"type":"SCALAR"},{"bufferView":11,"byteOffset":23448,"count":3354,"componentType":5125,"type":"SCALAR"},{"bufferView":12,"byteOffset":0,"count":386,"componentType":5126,"type":"VEC3","min":[-0.5579909086227417,-0.88471746444702148,-0.72326779365539551],"max":[0.70887839794158936,-0.28909274935722351,-0.35132989287376404]},{"bufferView":13,"byteOffset":0,"count":2304,"componentType":5125,"type":"SCALAR"},{"bufferView":14,"byteOffset":0,"count":386,"componentType":5126,"type":"VEC3","min":[0.67396563291549683,0.31091678142547607,0.44677332043647766],"max":[0.82076281309127808,0.40770828723907471,0.59497970342636108]},{"bufferView":15,"byteOffset":0,"count":2304,"componentType":5125,"type":"SCALAR"},{"bufferView":16,"byteOffset":0,"count":386,"componentType":5126,"type":"VEC3","min":[0.82937288284301758,-0.19216214120388031,0.26909610629081726],"max":[0.97617006301879883,-0.088695064187049866,0.41308692097663879]},{"bufferView":17,"byteOffset":0,"count":2304,"componentType":5125,"type":"SCALAR"},{"bufferView":18,"byteOffset":0,"count":386,"componentType":5126,"type":"VEC3","min":[0.58147639036178589,-0.041768714785575867,-0.69508504867553711],"max":[0.95228302478790283,0.46382474899291992,-0.23395681381225586]},{"bufferView":19,"byteOffset":0,"count":2304,"componentType":5125,"type":"SCALAR"}],"bufferViews":[{"buffer":0,"byteOffset":0,"byteLength":4632,"byteStride":12,"target":34962},{"buffer":0,"byteOffset":4632,"byteLength":9216,"target":34963},{"buffer":0,"byteOffset":13848,"byteLength":30744,"byteStride":12,"target":34962},{"buffer":0,"byteOffset":44592,"byteLength":61440,"target":34963},{"buffer":0,"byteOffset":106032,"byteLength":20376,"byteStride":12,"target":34962},{"buffer":0,"byteOffset":126408,"byteLength":36864,"target":34963},{"buffer":0,"byteOffset":163272,"byteLength":18456,"byteStride":12,"target":34962},{"buffer":0,"byteOffset":181728,"byteLength":36864,"target":34963},{"buffer":0,"byteOffset":218592,"byteLength":4632,"byteStride":12,"target":34962},{"buffer":0,"byteOffset":223224,"byteLength":9216,"target":34963},{"buffer":0,"byteOffset":232440,"byteLength":20088,"byteStride":12,"target":34962},{"buffer":0,"byteOffset":252528,"byteLength":36864,"target":34963},{"buffer":0,"byteOffset":289392,"byteLength":4632,"byteStride":12,"target":34962},{"buffer":0,"byteOffset":294024,"byteLength":9216,"target":34963},{"buffer":0,"byteOffset":303240,"byteLength":4632,"byteStride":12,"target":34962},{"buffer":0,"byteOffset":307872,"byteLength":9216,"target":34963},{"buffer":0,"byteOffset":317088,"byteLength":4632,"byteStride":12,"target":34962},{"buffer":0,"byteOffset":321720,"byteLength":9216,"target":34963},{"buffer":0,"byteOffset":330936,"byteLength":4632,"byteStride":12,"target":34962},{"buffer":0,"byteOffset":335568,"byteLength":9216,"target":34963}],"buffers":[{"byteLength":344784,"uri":"venus.bin"}]}