{"asset":{"generator":"3D Builder","version":"2.0"},"scene":0,"scenes":[{"nodes":[0,1,2]}],"nodes":[{"mesh":0,"matrix":[1,0,0,0,0,-1.1920928955078125E-7,-0.99999988079071045,0,0,0.99999988079071045,-1.1920928955078125E-7,0,0.0015438980190083385,1.0492681264877319,0.010279334150254726,1]},{"mesh":1,"matrix":[1,0,0,0,0,-1.1920928955078125E-7,-0.99999988079071045,0,0,0.99999988079071045,-1.1920928955078125E-7,0,0.0015438980190083385,1.0492681264877319,0.010279334150254726,1]},{"mesh":2,"matrix":[39.370079040527344,0,0,0,0,-4.6932791519793682E-6,-39.370075225830078,0,0,39.370075225830078,-4.6932791519793682E-6,0,0.0015438980190083385,1.0492681264877319,0.010279334150254726,1]}],"meshes":[{"primitives":[{"attributes":{"POSITION":0},"mode":4,"indices":1,"material":0}]},{"primitives":[{"attributes":{"POSITION":2},"mode":4,"indices":3,"material":1}]},{"primitives":[{"attributes":{"POSITION":4},"mode":4,"indices":5,"material":2}]}],"materials":[{"name":"Material.014","pbrMetallicRoughness":{"baseColorFactor":[0.043734773993492126,0.10461634397506714,0.30054369568824768,1],"metallicFactor":0,"roughnessFactor":0.5},"alphaMode":"OPAQUE"},{"name":"Material.015","pbrMetallicRoughness":{"baseColorFactor":[0.012982928194105625,0.034339748322963715,0.12743765115737915,1],"metallicFactor":0,"roughnessFactor":0.5},"alphaMode":"OPAQUE"},{"name":"Material.013","pbrMetallicRoughness":{"baseColorFactor":[0.18447418510913849,0.47931966185569763,0.78353780508041382,1],"metallicFactor":0,"roughnessFactor":0.5},"alphaMode":"OPAQUE"}],"accessors":[{"bufferView":0,"byteOffset":0,"count":16094,"componentType":5126,"type":"VEC3","min":[-1.0232995748519897,-1.0234540700912476,-1.0239021778106689],"max":[1.0232995748519897,1.023453950881958,1.0239021778106689]},{"bufferView":1,"byteOffset":0,"count":96552,"componentType":5125,"type":"SCALAR"},{"bufferView":2,"byteOffset":0,"count":2562,"componentType":5126,"type":"VEC3","min":[-1.0110607147216797,-1.0110605955123901,-1.0110607147216797],"max":[1.0110608339309692,1.0110605955123901,1.0110607147216797]},{"bufferView":3,"byteOffset":0,"count":15360,"componentType":5125,"type":"SCALAR"},{"bufferView":4,"byteOffset":0,"count":5266,"componentType":5126,"type":"VEC3","min":[-0.026070237159729004,-0.025273840874433517,-0.02665141224861145],"max":[0.025271115824580193,0.026510478928685188,0.026082104071974754]},{"bufferView":5,"byteOffset":0,"count":31644,"componentType":5125,"type":"SCALAR"}],"bufferViews":[{"buffer":0,"byteOffset":0,"byteLength":193128,"byteStride":12,"target":34962},{"buffer":0,"byteOffset":193128,"byteLength":386208,"target":34963},{"buffer":0,"byteOffset":579336,"byteLength":30744,"byteStride":12,"target":34962},{"buffer":0,"byteOffset":610080,"byteLength":61440,"target":34963},{"buffer":0,"byteOffset":671520,"byteLength":63192,"byteStride":12,"target":34962},{"buffer":0,"byteOffset":734712,"byteLength":126576,"target":34963}],"buffers":[{"byteLength":861288,"uri":"neptune.bin"}]}