{"asset":{"generator":"3D Builder","version":"2.0"},"scene":0,"scenes":[{"nodes":[0,1,2,3,4,5,6,7,8,9,10]}],"nodes":[{"mesh":0,"matrix":[1,0,0,0,0,-1.1920928955078125E-7,-0.99999988079071045,0,0,0.99999988079071045,-1.1920928955078125E-7,0,-0.0016601699171587825,0.996670126914978,-0.019530562683939934,1]},{"mesh":1,"matrix":[1,0,0,0,0,-1.1920928955078125E-7,-0.99999988079071045,0,0,0.99999988079071045,-1.1920928955078125E-7,0,-0.0016601699171587825,0.996670126914978,-0.019530562683939934,1]},{"mesh":2,"matrix":[1,0,0,0,0,-1.1920928955078125E-7,-0.99999988079071045,0,0,0.99999988079071045,-1.1920928955078125E-7,0,-0.0016601699171587825,0.996670126914978,-0.019530562683939934,1]},{"mesh":3,"matrix":[1,0,0,0,0,-1.1920928955078125E-7,-0.99999988079071045,0,0,0.99999988079071045,-1.1920928955078125E-7,0,-0.0016601699171587825,0.996670126914978,-0.019530562683939934,1]},{"mesh":4,"matrix":[1,0,0,0,0,-1.1920928955078125E-7,-0.99999988079071045,0,0,0.99999988079071045,-1.1920928955078125E-7,0,-0.0016601699171587825,0.996670126914978,-0.019530562683939934,1]},{"mesh":5,"matrix":[1,0,0,0,0,-1.1920928955078125E-7,-0.99999988079071045,0,0,0.99999988079071045,-1.1920928955078125E-7,0,-0.0016601699171587825,0.996670126914978,-0.019530562683939934,1]},{"mesh":6,"matrix":[1,0,0,0,0,-1.1920928955078125E-7,-0.99999988079071045,0,0,0.99999988079071045,-1.1920928955078125E-7,0,-0.0016601699171587825,0.996670126914978,-0.019530562683939934,1]},{"mesh":7,"matrix":[1,0,0,0,0,-1.1920928955078125E-7,-0.99999988079071045,0,0,0.99999988079071045,-1.1920928955078125E-7,0,-0.0016601699171587825,0.996670126914978,-0.019530562683939934,1]},{"mesh":8,"matrix":[1,0,0,0,0,-1.1920928955078125E-7,-0.99999988079071045,0,0,0.99999988079071045,-1.1920928955078125E-7,0,-0.0016601699171587825,0.996670126914978,-0.019530562683939934,1]},{"mesh":9,"matrix":[1,0,0,0,0,-1.1920928955078125E-7,-0.99999988079071045,0,0,0.99999988079071045,-1.1920928955078125E-7,0,-0.0016601699171587825,0.996670126914978,-0.019530562683939934,1]},{"mesh":10,"matrix":[1,0,0,0,0,-1.1920928955078125E-7,-0.99999988079071045,0,0,0.99999988079071045,-1.1920928955078125E-7,0,-0.0016601699171587825,0.996670126914978,-0.019530562683939934,1]}],"meshes":[{"primitives":[{"attributes":{"POSITION":0},"mode":4,"indices":1,"material":0}]},{"primitives":[{"attributes":{"POSITION":2},"mode":4,"indices":3,"material":1}]},{"primitives":[{"attributes":{"POSITION":4},"mode":4,"indices":5,"material":0}]},{"primitives":[{"attributes":{"POSITION":6},"mode":4,"indices":7,"material":0}]},{"primitives":[{"attributes":{"POSITION":8},"mode":4,"indices":9,"material":0}]},{"primitives":[{"attributes":{"POSITION":10},"mode":4,"indices":11,"material":0}]},{"primitives":[{"attributes":{"POSITION":12},"mode":4,"indices":13,"material":0}]},{"primitives":[{"attributes":{"POSITION":14},"mode":4,"indices":15,"material":0}]},{"primitives":[{"attributes":{"POSITION":16},"mode":4,"indices":17,"material":2}]},{"primitives":[{"attributes":{"POSITION":18},"mode":4,"indices":19,"material":0}]},{"primitives":[{"attributes":{"POSITION":20},"mode":4,"indices":21,"material":0}]}],"materials":[{"name":"Material.003","pbrMetallicRoughness":{"baseColorFactor":[0.45078593492507935,0.043734900653362274,0.021219028159976006,1],"metallicFactor":0,"roughnessFactor":0.5},"alphaMode":"OPAQUE"},{"name":"Material.001","pbrMetallicRoughness":{"baseColorFactor":[0.75294256210327148,0.068477973341941833,0.014443877153098583,1],"metallicFactor":0,"roughnessFactor":0.5},"alphaMode":"OPAQUE"},{"name":"Material.004","pbrMetallicRoughness":{"baseColorFactor":[0.15743382275104523,0.017900103703141212,0.010160923935472965,1],"metallicFactor":0,"roughnessFactor":0.5},"alphaMode":"OPAQUE"}],"accessors":[{"bufferView":0,"byteOffset":0,"count":1538,"componentType":5126,"type":"VEC3","min":[-0.99540418386459351,-0.53129386901855469,-0.78980326652526855],"max":[-0.00016051530838012695,0.48652744293212891,0.21930798888206482]},{"bufferView":1,"byteOffset":0,"count":9216,"componentType":5125,"type":"SCALAR"},{"bufferView":2,"byteOffset":0,"count":3842,"componentType":5126,"type":"VEC3","min":[-0.99459779262542725,-0.9950331449508667,-0.99667024612426758],"max":[0.99872446060180664,0.993050754070282,0.99667024612426758]},{"bufferView":3,"byteOffset":0,"count":23040,"componentType":5125,"type":"SCALAR"},{"bufferView":4,"byteOffset":0,"count":1538,"componentType":5126,"type":"VEC3","min":[-0.27653086185455322,-0.288601815700531,-0.96127116680145264],"max":[0.861953616142273,0.89480888843536377,0.23479565978050232]},{"bufferView":5,"byteOffset":0,"count":9216,"componentType":5125,"type":"SCALAR"},{"bufferView":6,"byteOffset":0,"count":1538,"componentType":5126,"type":"VEC3","min":[-0.43281656503677368,-1.032111644744873,-0.82908904552459717],"max":[0.72576868534088135,0.1384635865688324,0.44331377744674683]},{"bufferView":7,"byteOffset":0,"count":9216,"componentType":5125,"type":"SCALAR"},{"bufferView":8,"byteOffset":0,"count":386,"componentType":5126,"type":"VEC3","min":[-0.081972241401672363,-0.1293952465057373,-0.34591227769851685],"max":[0.86757528781890869,0.84485542774200439,0.60483914613723755]},{"bufferView":9,"byteOffset":0,"count":2304,"componentType":5125,"type":"SCALAR"},{"bufferView":10,"byteOffset":0,"count":1538,"componentType":5126,"type":"VEC3","min":[0.36890155076980591,-0.089896693825721741,0.3655363917350769],"max":[0.84799182415008545,0.50369083881378174,0.80294221639633179]},{"bufferView":11,"byteOffset":0,"count":9216,"componentType":5125,"type":"SCALAR"},{"bufferView":12,"byteOffset":0,"count":386,"componentType":5126,"type":"VEC3","min":[0.16357043385505676,-0.38345029950141907,0.43514686822891235],"max":[0.689008355140686,0.12806585431098938,0.95792829990386963]},{"bufferView":13,"byteOffset":0,"count":2304,"componentType":5125,"type":"SCALAR"},{"bufferView":14,"byteOffset":0,"count":1538,"componentType":5126,"type":"VEC3","min":[-0.98567038774490356,-0.88753342628479,-0.73418617248535156],"max":[0.93041664361953735,0.95842432975769043,0.78750181198120117]},{"bufferView":15,"byteOffset":0,"count":9216,"componentType":5125,"type":"SCALAR"},{"bufferView":16,"byteOffset":0,"count":482,"componentType":5126,"type":"VEC3","min":[-0.97512614727020264,-0.975126326084137,-0.97512698173522949],"max":[0.97512680292129517,0.97512698173522949,0.97512698173522949]},{"bufferView":17,"byteOffset":0,"count":2880,"componentType":5125,"type":"SCALAR"},{"bufferView":18,"byteOffset":0,"count":386,"componentType":5126,"type":"VEC3","min":[-0.87909746170043945,-0.72011566162109375,-0.6344800591468811],"max":[0.799915075302124,0.94873183965682983,0.98996639251708984]},{"bufferView":19,"byteOffset":0,"count":2304,"componentType":5125,"type":"SCALAR"},{"bufferView":20,"byteOffset":0,"count":386,"componentType":5126,"type":"VEC3","min":[-0.723324179649353,-0.035759687423706055,-0.74960112571716309],"max":[0.26314586400985718,0.91781985759735107,0.20115026831626892]},{"bufferView":21,"byteOffset":0,"count":2304,"componentType":5125,"type":"SCALAR"}],"bufferViews":[{"buffer":0,"byteOffset":0,"byteLength":18456,"byteStride":12,"target":34962},{"buffer":0,"byteOffset":18456,"byteLength":36864,"target":34963},{"buffer":0,"byteOffset":55320,"byteLength":46104,"byteStride":12,"target":34962},{"buffer":0,"byteOffset":101424,"byteLength":92160,"target":34963},{"buffer":0,"byteOffset":193584,"byteLength":18456,"byteStride":12,"target":34962},{"buffer":0,"byteOffset":212040,"byteLength":36864,"target":34963},{"buffer":0,"byteOffset":248904,"byteLength":18456,"byteStride":12,"target":34962},{"buffer":0,"byteOffset":267360,"byteLength":36864,"target":34963},{"buffer":0,"byteOffset":304224,"byteLength":4632,"byteStride":12,"target":34962},{"buffer":0,"byteOffset":308856,"byteLength":9216,"target":34963},{"buffer":0,"byteOffset":318072,"byteLength":18456,"byteStride":12,"target":34962},{"buffer":0,"byteOffset":336528,"byteLength":36864,"target":34963},{"buffer":0,"byteOffset":373392,"byteLength":4632,"byteStride":12,"target":34962},{"buffer":0,"byteOffset":378024,"byteLength":9216,"target":34963},{"buffer":0,"byteOffset":387240,"byteLength":18456,"byteStride":12,"target":34962},{"buffer":0,"byteOffset":405696,"byteLength":36864,"target":34963},{"buffer":0,"byteOffset":442560,"byteLength":5784,"byteStride":12,"target":34962},{"buffer":0,"byteOffset":448344,"byteLength":11520,"target":34963},{"buffer":0,"byteOffset":459864,"byteLength":4632,"byteStride":12,"target":34962},{"buffer":0,"byteOffset":464496,"byteLength":9216,"target":34963},{"buffer":0,"byteOffset":473712,"byteLength":4632,"byteStride":12,"target":34962},{"buffer":0,"byteOffset":478344,"byteLength":9216,"target":34963}],"buffers":[{"byteLength":487560,"uri":"mars.bin"}]}