{"asset":{"generator":"3D Builder","version":"2.0"},"scene":0,"scenes":[{"nodes":[0,1]}],"nodes":[{"mesh":0,"matrix":[1,0,0,0,0,-1.1920928955078125E-7,-0.99999988079071045,0,0,0.99999988079071045,-1.1920928955078125E-7,0,0.015164384618401527,1.029401421546936,-0.012495240196585655,1]},{"mesh":1,"matrix":[1,0,0,0,0,-1.1920928955078125E-7,-0.99999988079071045,0,0,0.99999988079071045,-1.1920928955078125E-7,0,0.015164384618401527,1.029401421546936,-0.012495240196585655,1]}],"meshes":[{"primitives":[{"attributes":{"POSITION":0},"mode":4,"indices":2,"material":0},{"attributes":{"POSITION":1},"mode":4,"indices":3,"material":1}]},{"primitives":[{"attributes":{"POSITION":4},"mode":4,"indices":5,"material":2}]}],"materials":[{"name":"Material.003","pbrMetallicRoughness":{"baseColorFactor":[0.64447987079620361,0.039546065032482147,0.0262412428855896,1],"metallicFactor":0,"roughnessFactor":1},"alphaMode":"OPAQUE"},{"name":"Material.004","pbrMetallicRoughness":{"baseColorFactor":[0.36130687594413757,0.021218914538621902,0.010329835116863251,1],"metallicFactor":0,"roughnessFactor":1},"alphaMode":"OPAQUE"},{"name":"Material.002","pbrMetallicRoughness":{"baseColorFactor":[0.72305524349212646,0.064803063869476318,0.012286520563066006,1],"metallicFactor":0,"roughnessFactor":1},"alphaMode":"OPAQUE"}],"accessors":[{"bufferView":0,"byteOffset":0,"count":251,"componentType":5126,"type":"VEC3","min":[-1.0731937885284424,-1.068327784538269,-1.0294015407562256],"max":[1.0428650379180908,1.0433375835418701,1.0429890155792236]},{"bufferView":0,"byteOffset":3012,"count":13,"componentType":5126,"type":"VEC3","min":[0.035946417599916458,-0.994874894618988,-0.52413606643676758],"max":[0.89478868246078491,-0.46762582659721375,0.642408549785614]},{"bufferView":1,"byteOffset":0,"count":1473,"componentType":5125,"type":"SCALAR"},{"bufferView":1,"byteOffset":5892,"count":33,"componentType":5125,"type":"SCALAR"},{"bufferView":2,"byteOffset":0,"count":162,"componentType":5126,"type":"VEC3","min":[-1.0143556594848633,-1.0143555402755737,-1.0143556594848633],"max":[1.0143557786941528,1.0143556594848633,1.0143556594848633]},{"bufferView":3,"byteOffset":0,"count":960,"componentType":5125,"type":"SCALAR"}],"bufferViews":[{"buffer":0,"byteOffset":0,"byteLength":3168,"byteStride":12,"target":34962},{"buffer":0,"byteOffset":3168,"byteLength":6024,"target":34963},{"buffer":0,"byteOffset":9192,"byteLength":1944,"byteStride":12,"target":34962},{"buffer":0,"byteOffset":11136,"byteLength":3840,"target":34963}],"buffers":[{"byteLength":14976,"uri":"mars.bin"}]}